# xmcd CD database file
#
# Track frame offsets:
#	150
#	19128
#	39486
#	60073
#	78599
#	97068
#	116983
#	135626
#	152926
#
# Disc length: 2266 seconds
#
# Revision: 0
# Processed by: cddbd v1.5.2PL0 Copyright (c) Steve Scherf et al.
# Submitted via: CDex 1.51
#
DISCID=7208d809
DTITLE=Robert O'Hearn - Robert O'Hearn
DYEAR=2004
DGENRE=New Age
TTITLE0=Aeroglide
TTITLE1=Weathervane
TTITLE2=Lost Sons of Erin
TTITLE3=Gabriel's Waltz
TTITLE4=The Essence of Better Days
TTITLE5=A Night in Ghost Forest
TTITLE6=On the Dragon's Tail
TTITLE7=Flowers in the Rain
TTITLE8=Memories of 33'rd St
EXTD=YEAR: 2004
EXTT0=
EXTT1=
EXTT2=
EXTT3=
EXTT4=
EXTT5=
EXTT6=
EXTT7=
EXTT8=
PLAYORDER=
